<svg width="400" height="400" viewBox="0 0 400 400" fill="none" xmlns="http://www.w3.org/2000/svg">
<circle cx="200" cy="200" r="200" fill="#E76F51"/>
<path d="M76.8284 169.828C75.2663 168.266 75.2663 165.734 76.8284 164.172L96.1716 144.828C97.7337 143.266 100.266 143.266 101.828 144.828L185.672 228.672C187.234 230.234 187.234 232.766 185.672 234.328L166.328 253.672C164.766 255.234 162.234 255.234 160.672 253.672L76.8284 169.828Z" fill="#E9C46A"/>
<path d="M101.828 253.672C100.266 255.234 97.7337 255.234 96.1716 253.672L76.8284 234.328C75.2663 232.766 75.2663 230.234 76.8284 228.672L160.672 144.828C162.234 143.266 164.766 143.266 166.328 144.828L185.672 164.172C187.234 165.734 187.234 168.266 185.672 169.828L101.828 253.672Z" fill="#E9C46A"/>
<circle cx="268" cy="199.5" r="39.5" stroke="#E9C46A" stroke-width="36"/>
</svg>
